<svg width="200" height="200" viewBox="0 0 200 200" fill="none" xmlns="http://www.w3.org/2000/svg">
<rect width="200" height="200" fill="#FF6600"/>
<path d="M138.833 160H84.7333C81.2256 160 77.9242 158.649 75.4482 156.194L34.1821 115.262C31.0872 112.192 30.1381 107.567 31.83 103.555C33.5219 99.5033 37.4422 96.8836 41.8576 96.8836H92.3675V46.7425C92.3675 42.3628 95.0084 38.4743 99.0524 36.7961C103.055 35.1589 107.842 36.1003 110.896 39.1292L152.162 80.0607C154.638 82.5577 156 85.7913 156 89.2702V142.932C156.041 152.346 148.324 160 138.833 160ZM87.0028 141.54H137.43V91.5216L110.978 65.2845V115.303H60.5512L87.0028 141.54Z" fill="white"/>
</svg>
